<?xml version="1.0" standalone="no"?>
<!DOCTYPE svg PUBLIC "-//W3C//DTD SVG 20010904//EN"
 "http://www.w3.org/TR/2001/REC-SVG-20010904/DTD/svg10.dtd">
<svg version="1.0" xmlns="http://www.w3.org/2000/svg"
 width="260.000000pt" height="260.000000pt" viewBox="0 0 260.000000 260.000000"
 preserveAspectRatio="xMidYMid meet">
<metadata>
Created by potrace 1.14, written by Peter Selinger 2001-2017
</metadata>
<g transform="translate(0.000000,260.000000) scale(0.100000,-0.100000)"
fill="#000000" stroke="none">
<path d="M200 1321 l0 -701 160 0 160 0 0 230 0 231 77 -3 76 -3 45 -75 c24
-41 58 -100 76 -131 17 -30 56 -99 86 -152 l55 -97 174 0 173 0 -14 23 c-34
52 -278 478 -278 484 0 5 17 19 37 33 142 96 215 236 208 400 -6 186 -101 328
-275 413 l-85 42 -337 3 -338 4 0 -701z m619 383 c24 -10 50 -31 68 -56 24
-35 28 -51 28 -108 0 -54 -5 -73 -25 -104 -43 -64 -79 -76 -235 -76 l-135 0 0
180 0 180 130 0 c95 0 140 -4 169 -16z"/>
<path d="M1430 1320 l0 -701 353 3 c343 3 354 4 412 27 115 46 192 115 240
216 50 107 43 266 -18 362 -25 40 -96 113 -109 113 -4 0 12 26 36 58 169 219
44 538 -239 608 -16 4 -175 9 -352 11 l-323 4 0 -701z m607 383 c58 -27 79
-102 47 -168 -24 -51 -60 -62 -206 -64 l-128 -2 0 125 0 126 126 0 c97 0 134
-4 161 -17z m40 -528 c18 -8 42 -29 53 -47 39 -62 13 -163 -51 -195 -16 -9
-75 -13 -176 -13 l-153 0 0 133 0 133 147 2 c104 0 157 -3 180 -13z"/>
</g>
</svg>
